<svg width="87" height="87" viewBox="0 0 87 87" fill="none" xmlns="http://www.w3.org/2000/svg">
<circle cx="43.5" cy="43.5" r="43.5" fill="#E8F9F4"/>
<path d="M37.0017 43.5008L41.0017 47.4175L49.0017 39.5841L37.0017 43.5008ZM34.6717 29.1991C36.1063 29.087 37.4682 28.5346 38.5637 27.6207C39.8015 26.5872 41.3749 26.0195 43.0017 26.0195C44.6284 26.0195 46.2018 26.5872 47.4397 27.6207C48.5351 28.5346 49.897 29.087 51.3317 29.1991C52.9532 29.3254 54.4756 30.0134 55.6258 31.1397C56.776 32.2659 57.4787 33.7566 57.6077 35.3443C57.7222 36.7491 58.2863 38.0826 59.2197 39.1553C60.2751 40.3673 60.8549 41.908 60.8549 43.5008C60.8549 45.0936 60.2751 46.6343 59.2197 47.8464C58.2863 48.919 57.7222 50.2525 57.6077 51.6573C57.4787 53.245 56.776 54.7357 55.6258 55.862C54.4756 56.9882 52.9532 57.6762 51.3317 57.8025C49.897 57.9146 48.5351 58.467 47.4397 59.3809C46.2018 60.4144 44.6284 60.9821 43.0017 60.9821C41.3749 60.9821 39.8015 60.4144 38.5637 59.3809C37.4682 58.467 36.1063 57.9146 34.6717 57.8025C33.0502 57.6762 31.5277 56.9882 30.3775 55.862C29.2273 54.7357 28.5247 53.245 28.3957 51.6573C28.2812 50.2525 27.7171 48.919 26.7837 47.8464C25.7282 46.6343 25.1484 45.0936 25.1484 43.5008C25.1484 41.908 25.7282 40.3673 26.7837 39.1553C27.7171 38.0826 28.2812 36.7491 28.3957 35.3443C28.5247 33.7566 29.2273 32.2659 30.3775 31.1397C31.5277 30.0134 33.0502 29.3254 34.6717 29.1991Z" stroke="#4CCDAD" stroke-width="1.5" stroke-linecap="round" stroke-linejoin="round"/>
</svg>
