<svg width="87" height="87" viewBox="0 0 87 87" fill="none" xmlns="http://www.w3.org/2000/svg">
<circle cx="43.5" cy="43.5" r="43.5" fill="#E8F9F4"/>
<path d="M36.25 28.25H31.75C30.5565 28.25 29.4119 28.7241 28.568 29.568C27.7241 30.4119 27.25 31.5565 27.25 32.75V59.75C27.25 60.9435 27.7241 62.0881 28.568 62.932C29.4119 63.7759 30.5565 64.25 31.75 64.25H54.25C55.4435 64.25 56.5881 63.7759 57.432 62.932C58.2759 62.0881 58.75 60.9435 58.75 59.75V32.75C58.75 31.5565 58.2759 30.4119 57.432 29.568C56.5881 28.7241 55.4435 28.25 54.25 28.25H49.75M36.25 28.25H49.75M36.25 28.25C36.25 29.4435 36.7241 30.5881 37.568 31.432C38.4119 32.2759 39.5565 32.75 40.75 32.75H45.25C46.4435 32.75 47.5881 32.2759 48.432 31.432C49.2759 30.5881 49.75 29.4435 49.75 28.25M36.25 28.25C36.25 27.0565 36.7241 25.9119 37.568 25.068C38.4119 24.2241 39.5565 23.75 40.75 23.75H45.25C46.4435 23.75 47.5881 24.2241 48.432 25.068C49.2759 25.9119 49.75 27.0565 49.75 28.25M36.25 48.5L40.75 53L49.75 44" stroke="#4CCDAD" stroke-width="1.5" stroke-linecap="round" stroke-linejoin="round"/>
</svg>
