<svg width="87" height="87" viewBox="0 0 87 87" fill="none" xmlns="http://www.w3.org/2000/svg">
<circle cx="43.5" cy="43.5" r="43.5" fill="#5F8EFE"/>
<path d="M34.8333 33.8333V49.5C34.8333 50.5388 35.246 51.535 35.9805 52.2695C36.715 53.004 37.7112 53.4167 38.75 53.4167H50.5M34.8333 33.8333L50.5 53.4167M34.8333 33.8333V29.9167C34.8333 28.8779 35.246 27.8817 35.9805 27.1472C36.715 26.4126 37.7112 26 38.75 26H47.7309C48.2503 26.0001 48.7483 26.2065 49.1155 26.5738L57.7595 35.2179C58.1268 35.585 58.3332 36.0831 58.3333 36.6024V49.5C58.3333 50.5388 57.9207 51.535 57.1862 52.2695C56.4516 53.004 55.4554 53.4167 54.4167 53.4167H50.5M34.8333 33.8333H30.9167C29.8779 33.8333 28.8817 34.246 28.1472 34.9805C27.4126 35.715 27 36.7112 27 37.75V57.3333C27 58.3721 27.4126 59.3683 28.1472 60.1028C28.8817 60.8374 29.8779 61.25 30.9167 61.25H46.5833C47.6221 61.25 48.6183 60.8374 49.3528 60.1028C50.0873 59.3683 50.5 58.3721 50.5 57.3333V53.4167" stroke="#3772FA" stroke-width="1.5" stroke-linecap="round" stroke-linejoin="round"/>
</svg>
