<svg width="99" height="99" viewBox="0 0 99 99" fill="none" xmlns="http://www.w3.org/2000/svg">
<circle cx="49.5" cy="49.5" r="49.5" fill="#AFC7FF"/>
<path d="M58 38.875C58 41.1293 57.1045 43.2913 55.5104 44.8854C53.9164 46.4795 51.7543 47.375 49.5 47.375C47.2457 47.375 45.0837 46.4795 43.4896 44.8854C41.8955 43.2913 41 41.1293 41 38.875C41 36.6207 41.8955 34.4587 43.4896 32.8646C45.0837 31.2705 47.2457 30.375 49.5 30.375C51.7543 30.375 53.9164 31.2705 55.5104 32.8646C57.1045 34.4587 58 36.6207 58 38.875V38.875ZM49.5 53.75C45.5549 53.75 41.7714 55.3172 38.9818 58.1068C36.1922 60.8964 34.625 64.6799 34.625 68.625H64.375C64.375 64.6799 62.8078 60.8964 60.0182 58.1068C57.2286 55.3172 53.4451 53.75 49.5 53.75V53.75Z" stroke="#FDEEEE" stroke-width="3" stroke-linecap="round" stroke-linejoin="round"/>
</svg>
