<svg width="109" height="109" viewBox="0 0 109 109" fill="none" xmlns="http://www.w3.org/2000/svg">
<circle cx="54.5" cy="54.5" r="54.5" fill="#AFC7FF"/>
<path d="M64.6667 63.668V65.8346C64.6667 67.5585 63.9818 69.2118 62.7629 70.4308C61.5439 71.6498 59.8906 72.3346 58.1667 72.3346H43C41.2761 72.3346 39.6228 71.6498 38.4038 70.4308C37.1848 69.2118 36.5 67.5585 36.5 65.8346V44.168C36.5 42.4441 37.1848 40.7908 38.4038 39.5718C39.6228 38.3528 41.2761 37.668 43 37.668H58.1667C59.8906 37.668 61.5439 38.3528 62.7629 39.5718C63.9818 40.7908 64.6667 42.4441 64.6667 44.168V46.3346M53.8333 63.668L45.1667 55.0013L53.8333 63.668ZM45.1667 55.0013L53.8333 46.3346L45.1667 55.0013ZM45.1667 55.0013H75.5H45.1667Z" stroke="#FDEEEE" stroke-width="3" stroke-linecap="round" stroke-linejoin="round"/>
</svg>
