<svg width="42" height="42" viewBox="0 0 42 42" fill="none" xmlns="http://www.w3.org/2000/svg">
<path d="M31.9571 24.2203H41.0296C40.8604 25.2645 40.6572 26.2751 40.3526 27.252C37.9829 35.2693 31.4831 41.0296 23.8662 41.0296C23.1553 41.0296 22.4783 40.9959 21.8012 40.8949C23.8324 40.2885 25.762 39.3116 27.4885 37.8968C27.7932 37.661 28.0979 37.3915 28.4025 37.122C32.5326 35.5388 35.884 31.9007 37.5428 27.252H33.9205C32.668 31.4628 30.2983 35.0672 27.2177 37.5263C25.2542 39.0758 23.0538 40.1875 20.6502 40.6928C19.6008 40.9286 18.5514 41.0296 17.4342 41.0296C7.82 41.0296 0 31.8333 0 20.5148C0 9.1963 7.82 0 17.4342 0C18.5175 0 19.6008 0.134744 20.6502 0.336861C23.0538 0.875838 25.2881 1.95379 27.2177 3.50335C30.366 6.02981 32.8034 9.73527 34.0221 14.0808H37.6443C36.0194 9.26367 32.6341 5.49083 28.4025 3.90758C28.0979 3.6381 27.827 3.36861 27.5224 3.1328C25.7282 1.75168 23.8324 0.741093 21.8012 0.134744C22.4783 0.0336861 23.1553 0 23.8662 0C31.5847 0 38.1521 5.89506 40.4203 14.0808C40.6911 15.0577 40.8942 16.0683 41.0635 17.1125H31.9909C31.8217 16.0683 31.5508 15.0577 31.2462 14.0808C29.452 8.75838 25.4912 4.71605 20.6502 3.46966C19.6346 3.20018 18.5514 3.06543 17.4342 3.06543C16.2832 3.06543 15.1322 3.23386 14.0828 3.50335C7.51533 5.3224 2.60667 12.228 2.60667 20.5148C2.60667 28.8016 7.51533 35.7072 14.0828 37.5263C15.1661 37.8295 16.2832 37.9642 17.4342 37.9642C18.5514 37.9642 19.6008 37.8295 20.6502 37.56C25.3896 36.3473 29.3166 32.4397 31.1446 27.252C31.4831 26.2751 31.754 25.2645 31.9571 24.2203Z" fill="white"/>
</svg>
